<?xml version="1.0" encoding="utf-8"?>
<!-- Generator: Adobe Illustrator 16.0.0, SVG Export Plug-In . SVG Version: 6.00 Build 0)  -->
<!DOCTYPE svg PUBLIC "-//W3C//DTD SVG 1.1//EN" "http://www.w3.org/Graphics/SVG/1.1/DTD/svg11.dtd">
<svg version="1.1" id="图层_1" xmlns="http://www.w3.org/2000/svg" xmlns:xlink="http://www.w3.org/1999/xlink" x="0px" y="0px"
	 width="200px" height="200px" viewBox="0 0 200 200" enable-background="new 0 0 200 200" xml:space="preserve">
<path fill="#FF6F00" d="M161.25,49.583L148.334,60C157.5,71.25,162.5,85.417,162.5,99.583c0,34.583-27.916,62.5-62.5,62.5
	c-3.75,0-7.917-0.418-11.667-1.25l-2.917,16.25c5,0.832,10,1.25,14.583,1.25c43.75,0,79.166-35.418,79.166-79.167
	C179.166,81.667,172.916,63.75,161.25,49.583z"/>
<path fill="#FF6F02" d="M129.166,33.333L178.75,40l-40.834,40.833L129.166,33.333z"/>
<path fill="#FF6F00" d="M100,20.833c-43.75,0-79.167,35.417-79.167,79.167c0,19.166,6.667,37.5,19.167,51.666l12.5-10.832
	c-9.583-11.25-15-25.834-15-40.834c0-34.583,27.917-62.5,62.5-62.5c3.75,0,7.916,0.417,11.666,1.25l2.918-16.25
	C110,21.25,105,20.833,100,20.833z"/>
<path fill="#FF6F02" d="M70.833,166.666L21.25,160l40.833-40.834L70.833,166.666z"/>
<path fill="#424242" d="M100,57.083c-10.037,0-18.25,8.212-18.25,18.25v7.3h7.3v-7.3c0-6.023,4.928-10.95,10.95-10.95
	c6.023,0,10.951,4.927,10.951,10.95v7.3h7.299v-7.3C118.25,65.296,110.037,57.083,100,57.083z"/>
<path fill="#FB8C00" d="M121.9,130.084H78.1c-4.015,0-7.3-3.285-7.3-7.301v-32.85c0-4.015,3.285-7.3,7.3-7.3h43.8
	c4.016,0,7.3,3.285,7.3,7.3v32.85C129.2,126.799,125.916,130.084,121.9,130.084z"/>
<path fill="#C76E00" d="M94.525,106.359c0,3.023,2.451,5.475,5.475,5.475c3.024,0,5.476-2.451,5.476-5.475s-2.451-5.476-5.476-5.476
	C96.977,100.884,94.525,103.336,94.525,106.359z"/>
</svg>
